<svg width="29" height="25" viewBox="0 0 29 25" fill="none" xmlns="http://www.w3.org/2000/svg">
<path d="M18.9558 0.917084L23.4453 8.40851H28.2298V11.1023H26.5986L25.5406 23.3361C25.5115 23.6727 25.3522 23.9865 25.0944 24.2152C24.8365 24.444 24.4989 24.5711 24.1484 24.5712H4.35632C4.00559 24.5714 3.66762 24.4445 3.40947 24.2157C3.15133 23.9869 2.99188 23.6729 2.96277 23.3361L1.90467 11.1023H0.274902V8.40851H5.05799L9.54755 0.917084L11.9684 2.26398L8.28678 8.40851H20.2165L16.5363 2.26398L18.9572 0.917084H18.9558ZM23.792 11.1023H4.71135L5.64364 21.8775H22.8625L23.7948 11.1023H23.792ZM15.6501 13.7961V19.1837H12.8546V13.7961H15.6501ZM10.0591 13.7961V19.1837H7.26363V13.7961H10.0591ZM21.2411 13.7961V19.1837H18.4456V13.7961H21.2411Z" fill="white"/>
</svg>
